<svg width="85" height="17" viewBox="0 0 85 17" fill="none" xmlns="http://www.w3.org/2000/svg">
<mask id="path-1-outside-1_10695_185" maskUnits="userSpaceOnUse" x="-0.027771" y="-0.611115" width="85" height="18" fill="black">
<rect fill="white" x="-0.027771" y="-0.611115" width="85" height="18"/>
<path d="M5.96501 16.6622C4.8413 16.6622 3.85427 16.4572 3.0039 16.0472C2.16871 15.6372 1.50815 15.0526 1.02223 14.2933C0.551488 13.5341 0.308525 12.6306 0.29334 11.5828H2.84445C2.85964 12.3876 3.13297 13.0785 3.66445 13.6556C4.21112 14.2174 4.97038 14.4983 5.94223 14.4983C6.83815 14.4983 7.53667 14.2933 8.03778 13.8833C8.5389 13.4581 8.78945 12.9115 8.78945 12.2433C8.78945 11.6815 8.6376 11.2183 8.3339 10.8539C8.04538 10.4743 7.58982 10.1402 6.96723 9.85166C6.34464 9.54796 5.53982 9.23666 4.55278 8.91777C3.23167 8.49259 2.25982 7.90796 1.63723 7.16389C1.01464 6.40463 0.70334 5.47833 0.70334 4.385C0.70334 3.12463 1.1589 2.10722 2.07001 1.33277C2.98112 0.55833 4.2339 0.171108 5.82834 0.171108C7.37723 0.171108 8.62241 0.573515 9.5639 1.37833C10.5054 2.16796 10.9913 3.26889 11.0217 4.68111H8.44778C8.44778 4.30148 8.34149 3.93703 8.1289 3.58777C7.9163 3.22333 7.6126 2.92722 7.21778 2.69944C6.82297 2.45648 6.33704 2.335 5.76001 2.335C5.0463 2.31981 4.44649 2.49444 3.96056 2.85889C3.47464 3.20814 3.23167 3.68648 3.23167 4.29389C3.23167 5.03796 3.52778 5.62259 4.12001 6.04777C4.71223 6.45777 5.67649 6.88296 7.01278 7.32333C7.84797 7.59666 8.58445 7.93074 9.22223 8.32555C9.87519 8.70518 10.3839 9.1987 10.7483 9.80611C11.128 10.3983 11.3178 11.1576 11.3178 12.0839C11.3178 12.9343 11.1052 13.7087 10.68 14.4072C10.2548 15.0906 9.63982 15.6372 8.83501 16.0472C8.04538 16.4572 7.08871 16.6622 5.96501 16.6622ZM18.8028 16.3889V0.444441H24.2011C25.4159 0.444441 26.4181 0.657033 27.2078 1.08222C27.9974 1.49222 28.582 2.06166 28.9617 2.79055C29.3413 3.51944 29.5311 4.35463 29.5311 5.29611C29.5311 6.23759 29.3413 7.07277 28.9617 7.80166C28.582 8.53055 27.9974 9.10759 27.2078 9.53277C26.4181 9.94277 25.4159 10.1478 24.2011 10.1478H21.2172V16.3889H18.8028ZM21.2172 7.98389H24.0872C25.1198 7.98389 25.8715 7.74092 26.3422 7.255C26.8281 6.76907 27.0711 6.11611 27.0711 5.29611C27.0711 4.49129 26.8281 3.84592 26.3422 3.36C25.8715 2.85889 25.1198 2.60833 24.0872 2.60833H21.2172V7.98389ZM42.2322 16.6622C40.9415 16.6622 39.8254 16.3281 38.8839 15.66C37.9424 14.9918 37.2211 14.0428 36.72 12.8128C36.2189 11.5828 35.9683 10.1174 35.9683 8.41666C35.9683 6.71592 36.2189 5.25055 36.72 4.02055C37.2211 2.79055 37.9424 1.84148 38.8839 1.17333C39.8254 0.505182 40.9415 0.171108 42.2322 0.171108C43.5381 0.171108 44.6542 0.505182 45.5805 1.17333C46.522 1.84148 47.2433 2.79055 47.7444 4.02055C48.2455 5.25055 48.4961 6.71592 48.4961 8.41666C48.4961 10.1174 48.2455 11.5828 47.7444 12.8128C47.2433 14.0428 46.522 14.9918 45.5805 15.66C44.6542 16.3281 43.5381 16.6622 42.2322 16.6622ZM42.2322 14.3844C43.3711 14.3844 44.2898 13.8757 44.9883 12.8583C45.6868 11.8257 46.0361 10.3452 46.0361 8.41666C46.0361 6.48814 45.6868 5.01518 44.9883 3.99777C44.2898 2.96518 43.3711 2.44889 42.2322 2.44889C41.0781 2.44889 40.1518 2.96518 39.4533 3.99777C38.77 5.01518 38.4283 6.48814 38.4283 8.41666C38.4283 10.3452 38.77 11.8257 39.4533 12.8583C40.1518 13.8757 41.0781 14.3844 42.2322 14.3844ZM59.2383 16.3889V2.60833H54.9561V0.444441H65.935V2.60833H61.6528V16.3889H59.2383ZM78.8183 16.6622C77.6946 16.6622 76.7076 16.4572 75.8572 16.0472C75.022 15.6372 74.3614 15.0526 73.8755 14.2933C73.4048 13.5341 73.1618 12.6306 73.1466 11.5828H75.6977C75.7129 12.3876 75.9863 13.0785 76.5177 13.6556C77.0644 14.2174 77.8237 14.4983 78.7955 14.4983C79.6914 14.4983 80.39 14.2933 80.8911 13.8833C81.3922 13.4581 81.6427 12.9115 81.6427 12.2433C81.6427 11.6815 81.4909 11.2183 81.1872 10.8539C80.8987 10.4743 80.4431 10.1402 79.8205 9.85166C79.1979 9.54796 78.3931 9.23666 77.4061 8.91777C76.085 8.49259 75.1131 7.90796 74.4905 7.16389C73.8679 6.40463 73.5566 5.47833 73.5566 4.385C73.5566 3.12463 74.0122 2.10722 74.9233 1.33277C75.8344 0.55833 77.0872 0.171108 78.6816 0.171108C80.2305 0.171108 81.4757 0.573515 82.4172 1.37833C83.3587 2.16796 83.8446 3.26889 83.875 4.68111H81.3011C81.3011 4.30148 81.1948 3.93703 80.9822 3.58777C80.7696 3.22333 80.4659 2.92722 80.0711 2.69944C79.6763 2.45648 79.1903 2.335 78.6133 2.335C77.8996 2.31981 77.2998 2.49444 76.8139 2.85889C76.3279 3.20814 76.085 3.68648 76.085 4.29389C76.085 5.03796 76.3811 5.62259 76.9733 6.04777C77.5655 6.45777 78.5298 6.88296 79.8661 7.32333C80.7013 7.59666 81.4377 7.93074 82.0755 8.32555C82.7285 8.70518 83.2372 9.1987 83.6016 9.80611C83.9813 10.3983 84.1711 11.1576 84.1711 12.0839C84.1711 12.9343 83.9585 13.7087 83.5333 14.4072C83.1081 15.0906 82.4931 15.6372 81.6883 16.0472C80.8987 16.4572 79.942 16.6622 78.8183 16.6622Z"/>
</mask>
<path d="M5.96501 16.6622C4.8413 16.6622 3.85427 16.4572 3.0039 16.0472C2.16871 15.6372 1.50815 15.0526 1.02223 14.2933C0.551488 13.5341 0.308525 12.6306 0.29334 11.5828H2.84445C2.85964 12.3876 3.13297 13.0785 3.66445 13.6556C4.21112 14.2174 4.97038 14.4983 5.94223 14.4983C6.83815 14.4983 7.53667 14.2933 8.03778 13.8833C8.5389 13.4581 8.78945 12.9115 8.78945 12.2433C8.78945 11.6815 8.6376 11.2183 8.3339 10.8539C8.04538 10.4743 7.58982 10.1402 6.96723 9.85166C6.34464 9.54796 5.53982 9.23666 4.55278 8.91777C3.23167 8.49259 2.25982 7.90796 1.63723 7.16389C1.01464 6.40463 0.70334 5.47833 0.70334 4.385C0.70334 3.12463 1.1589 2.10722 2.07001 1.33277C2.98112 0.55833 4.2339 0.171108 5.82834 0.171108C7.37723 0.171108 8.62241 0.573515 9.5639 1.37833C10.5054 2.16796 10.9913 3.26889 11.0217 4.68111H8.44778C8.44778 4.30148 8.34149 3.93703 8.1289 3.58777C7.9163 3.22333 7.6126 2.92722 7.21778 2.69944C6.82297 2.45648 6.33704 2.335 5.76001 2.335C5.0463 2.31981 4.44649 2.49444 3.96056 2.85889C3.47464 3.20814 3.23167 3.68648 3.23167 4.29389C3.23167 5.03796 3.52778 5.62259 4.12001 6.04777C4.71223 6.45777 5.67649 6.88296 7.01278 7.32333C7.84797 7.59666 8.58445 7.93074 9.22223 8.32555C9.87519 8.70518 10.3839 9.1987 10.7483 9.80611C11.128 10.3983 11.3178 11.1576 11.3178 12.0839C11.3178 12.9343 11.1052 13.7087 10.68 14.4072C10.2548 15.0906 9.63982 15.6372 8.83501 16.0472C8.04538 16.4572 7.08871 16.6622 5.96501 16.6622ZM18.8028 16.3889V0.444441H24.2011C25.4159 0.444441 26.4181 0.657033 27.2078 1.08222C27.9974 1.49222 28.582 2.06166 28.9617 2.79055C29.3413 3.51944 29.5311 4.35463 29.5311 5.29611C29.5311 6.23759 29.3413 7.07277 28.9617 7.80166C28.582 8.53055 27.9974 9.10759 27.2078 9.53277C26.4181 9.94277 25.4159 10.1478 24.2011 10.1478H21.2172V16.3889H18.8028ZM21.2172 7.98389H24.0872C25.1198 7.98389 25.8715 7.74092 26.3422 7.255C26.8281 6.76907 27.0711 6.11611 27.0711 5.29611C27.0711 4.49129 26.8281 3.84592 26.3422 3.36C25.8715 2.85889 25.1198 2.60833 24.0872 2.60833H21.2172V7.98389ZM42.2322 16.6622C40.9415 16.6622 39.8254 16.3281 38.8839 15.66C37.9424 14.9918 37.2211 14.0428 36.72 12.8128C36.2189 11.5828 35.9683 10.1174 35.9683 8.41666C35.9683 6.71592 36.2189 5.25055 36.72 4.02055C37.2211 2.79055 37.9424 1.84148 38.8839 1.17333C39.8254 0.505182 40.9415 0.171108 42.2322 0.171108C43.5381 0.171108 44.6542 0.505182 45.5805 1.17333C46.522 1.84148 47.2433 2.79055 47.7444 4.02055C48.2455 5.25055 48.4961 6.71592 48.4961 8.41666C48.4961 10.1174 48.2455 11.5828 47.7444 12.8128C47.2433 14.0428 46.522 14.9918 45.5805 15.66C44.6542 16.3281 43.5381 16.6622 42.2322 16.6622ZM42.2322 14.3844C43.3711 14.3844 44.2898 13.8757 44.9883 12.8583C45.6868 11.8257 46.0361 10.3452 46.0361 8.41666C46.0361 6.48814 45.6868 5.01518 44.9883 3.99777C44.2898 2.96518 43.3711 2.44889 42.2322 2.44889C41.0781 2.44889 40.1518 2.96518 39.4533 3.99777C38.77 5.01518 38.4283 6.48814 38.4283 8.41666C38.4283 10.3452 38.77 11.8257 39.4533 12.8583C40.1518 13.8757 41.0781 14.3844 42.2322 14.3844ZM59.2383 16.3889V2.60833H54.9561V0.444441H65.935V2.60833H61.6528V16.3889H59.2383ZM78.8183 16.6622C77.6946 16.6622 76.7076 16.4572 75.8572 16.0472C75.022 15.6372 74.3614 15.0526 73.8755 14.2933C73.4048 13.5341 73.1618 12.6306 73.1466 11.5828H75.6977C75.7129 12.3876 75.9863 13.0785 76.5177 13.6556C77.0644 14.2174 77.8237 14.4983 78.7955 14.4983C79.6914 14.4983 80.39 14.2933 80.8911 13.8833C81.3922 13.4581 81.6427 12.9115 81.6427 12.2433C81.6427 11.6815 81.4909 11.2183 81.1872 10.8539C80.8987 10.4743 80.4431 10.1402 79.8205 9.85166C79.1979 9.54796 78.3931 9.23666 77.4061 8.91777C76.085 8.49259 75.1131 7.90796 74.4905 7.16389C73.8679 6.40463 73.5566 5.47833 73.5566 4.385C73.5566 3.12463 74.0122 2.10722 74.9233 1.33277C75.8344 0.55833 77.0872 0.171108 78.6816 0.171108C80.2305 0.171108 81.4757 0.573515 82.4172 1.37833C83.3587 2.16796 83.8446 3.26889 83.875 4.68111H81.3011C81.3011 4.30148 81.1948 3.93703 80.9822 3.58777C80.7696 3.22333 80.4659 2.92722 80.0711 2.69944C79.6763 2.45648 79.1903 2.335 78.6133 2.335C77.8996 2.31981 77.2998 2.49444 76.8139 2.85889C76.3279 3.20814 76.085 3.68648 76.085 4.29389C76.085 5.03796 76.3811 5.62259 76.9733 6.04777C77.5655 6.45777 78.5298 6.88296 79.8661 7.32333C80.7013 7.59666 81.4377 7.93074 82.0755 8.32555C82.7285 8.70518 83.2372 9.1987 83.6016 9.80611C83.9813 10.3983 84.1711 11.1576 84.1711 12.0839C84.1711 12.9343 83.9585 13.7087 83.5333 14.4072C83.1081 15.0906 82.4931 15.6372 81.6883 16.0472C80.8987 16.4572 79.942 16.6622 78.8183 16.6622Z" fill="#212121"/>
<path d="M3.0039 16.0472L2.90352 16.2517L2.90497 16.2524L3.0039 16.0472ZM1.02223 14.2933L0.82862 14.4134L0.830378 14.4161L1.02223 14.2933ZM0.29334 11.5828V11.355H0.0622373L0.0655863 11.5861L0.29334 11.5828ZM2.84445 11.5828L3.07219 11.5785L3.06797 11.355H2.84445V11.5828ZM3.66445 13.6556L3.49685 13.8099L3.5012 13.8144L3.66445 13.6556ZM8.03778 13.8833L8.18205 14.0596L8.18515 14.057L8.03778 13.8833ZM8.3339 10.8539L8.15236 10.9918L8.15891 10.9997L8.3339 10.8539ZM6.96723 9.85166L6.86735 10.0564L6.87146 10.0583L6.96723 9.85166ZM4.55278 8.91777L4.62281 8.70103L4.62257 8.70095L4.55278 8.91777ZM1.63723 7.16389L1.46109 7.30832L1.46254 7.31006L1.63723 7.16389ZM9.5639 1.37833L9.41588 1.55148L9.41752 1.55285L9.5639 1.37833ZM11.0217 4.68111V4.90889H11.2544L11.2494 4.67621L11.0217 4.68111ZM8.44778 4.68111H8.22001V4.90889H8.44778V4.68111ZM8.1289 3.58777L7.93211 3.70256L7.93433 3.70621L8.1289 3.58777ZM7.21778 2.69944L7.09836 2.89351L7.10396 2.89674L7.21778 2.69944ZM5.76001 2.335L5.75516 2.56277H5.76001V2.335ZM3.96056 2.85889L4.09353 3.04388L4.09723 3.04111L3.96056 2.85889ZM4.12001 6.04777L3.98715 6.23283L3.99035 6.23505L4.12001 6.04777ZM7.01278 7.32333L6.94149 7.53966L6.94194 7.53981L7.01278 7.32333ZM9.22223 8.32555L9.10229 8.5193L9.10774 8.52247L9.22223 8.32555ZM10.7483 9.80611L10.5529 9.92335L10.5566 9.92903L10.7483 9.80611ZM10.68 14.4072L10.8734 14.5276L10.8746 14.5257L10.68 14.4072ZM8.83501 16.0472L8.73161 15.8443L8.73004 15.8451L8.83501 16.0472ZM5.96501 16.4344C4.86911 16.4344 3.91701 16.2346 3.10282 15.842L2.90497 16.2524C3.79153 16.6798 4.8135 16.89 5.96501 16.89V16.4344ZM3.10427 15.8428C2.30521 15.4505 1.67681 14.8936 1.21408 14.1705L0.830378 14.4161C1.3395 15.2116 2.03221 15.824 2.90352 16.2517L3.10427 15.8428ZM1.21582 14.1733C0.77035 13.4548 0.535786 12.5932 0.521094 11.5795L0.0655863 11.5861C0.0812651 12.6679 0.332626 13.6133 0.82864 14.4134L1.21582 14.1733ZM0.29334 11.8106H2.84445V11.355H0.29334V11.8106ZM2.61671 11.5871C2.63292 12.446 2.92663 13.1907 3.49691 13.8099L3.83199 13.5012C3.33931 12.9663 3.08635 12.3292 3.07219 11.5785L2.61671 11.5871ZM3.5012 13.8144C4.10057 14.4304 4.92457 14.7261 5.94223 14.7261V14.2706C5.01619 14.2706 4.32167 14.0044 3.82771 13.4967L3.5012 13.8144ZM5.94223 14.7261C6.87075 14.7261 7.62705 14.5137 8.18202 14.0596L7.89355 13.707C7.4463 14.073 6.80556 14.2706 5.94223 14.2706V14.7261ZM8.18515 14.057C8.73824 13.5877 9.01723 12.9771 9.01723 12.2433H8.56167C8.56167 12.8459 8.33955 13.3286 7.89042 13.7096L8.18515 14.057ZM9.01723 12.2433C9.01723 11.6385 8.85274 11.1207 8.50888 10.7081L8.15891 10.9997C8.42245 11.316 8.56167 11.7245 8.56167 12.2433H9.01723ZM8.51524 10.7161C8.19654 10.2967 7.70548 9.94273 7.063 9.645L6.87146 10.0583C7.47416 10.3376 7.89421 10.6518 8.15255 10.9917L8.51524 10.7161ZM7.06709 9.64694C6.43138 9.33684 5.61557 9.02177 4.62281 8.70103L4.48276 9.13452C5.46407 9.45156 6.2579 9.75908 6.86737 10.0564L7.06709 9.64694ZM4.62257 8.70095C3.32565 8.28355 2.39746 7.71751 1.81192 7.01772L1.46254 7.31006C2.12218 8.09841 3.1377 8.70163 4.483 9.1346L4.62257 8.70095ZM1.81336 7.01946C1.22799 6.30558 0.931118 5.43202 0.931118 4.385H0.475562C0.475562 5.52464 0.801288 6.50367 1.4611 7.30831L1.81336 7.01946ZM0.931118 4.385C0.931118 3.18733 1.36039 2.23489 2.21753 1.50633L1.92249 1.15922C0.957401 1.97954 0.475562 3.06193 0.475562 4.385H0.931118ZM2.21753 1.50633C3.07545 0.777094 4.26976 0.398886 5.82834 0.398886V-0.0566696C4.19803 -0.0566696 2.88679 0.339566 1.92249 1.15922L2.21753 1.50633ZM5.82834 0.398886C7.33699 0.398886 8.5252 0.790074 9.41589 1.55147L9.7119 1.20519C8.71963 0.356957 7.41747 -0.0566696 5.82834 -0.0566696V0.398886ZM9.41752 1.55285C10.3009 2.29378 10.7648 3.32853 10.7939 4.68601L11.2494 4.67621C11.2179 3.20924 10.7098 2.04214 9.71027 1.20381L9.41752 1.55285ZM11.0217 4.45333H8.44778V4.90889H11.0217V4.45333ZM8.67556 4.68111C8.67556 4.25648 8.55604 3.85143 8.32346 3.46934L7.93433 3.70621C8.12694 4.02263 8.22001 4.34647 8.22001 4.68111H8.67556ZM8.32565 3.473C8.09147 3.07157 7.75793 2.7481 7.33161 2.50214L7.10396 2.89674C7.46727 3.10634 7.74113 3.37509 7.93215 3.70254L8.32565 3.473ZM7.33716 2.50545C6.89861 2.23557 6.36893 2.10722 5.76001 2.10722V2.56277C6.30516 2.56277 6.74733 2.67738 7.09841 2.89343L7.33716 2.50545ZM5.76485 2.10727C5.00951 2.0912 4.35743 2.27651 3.8239 2.67666L4.09723 3.04111C4.53554 2.71237 5.0831 2.54842 5.75516 2.56272L5.76485 2.10727ZM3.82762 2.67393C3.2811 3.06674 3.0039 3.61446 3.0039 4.29389H3.45945C3.45945 3.75849 3.66817 3.34955 4.0935 3.04384L3.82762 2.67393ZM3.0039 4.29389C3.0039 5.10953 3.3339 5.76379 3.98717 6.2328L4.25285 5.86274C3.72167 5.48138 3.45945 4.96639 3.45945 4.29389H3.0039ZM3.99035 6.23505C4.6104 6.66432 5.60023 7.09766 6.94149 7.53966L7.08408 7.107C5.75275 6.66826 4.81406 6.25123 4.24966 5.8605L3.99035 6.23505ZM6.94194 7.53981C7.76278 7.80845 8.4823 8.13539 9.10234 8.51922L9.34212 8.13188C8.6866 7.72608 7.93316 7.38488 7.08363 7.10685L6.94194 7.53981ZM9.10774 8.52247C9.72974 8.88409 10.2097 9.35105 10.553 9.9233L10.9437 9.68892C10.5581 9.04635 10.0206 8.52627 9.33671 8.12864L9.10774 8.52247ZM10.5566 9.92903C10.9063 10.4746 11.09 11.1876 11.09 12.0839H11.5456C11.5456 11.1275 11.3496 10.322 10.9401 9.68318L10.5566 9.92903ZM11.09 12.0839C11.09 12.8942 10.888 13.6274 10.4854 14.2888L10.8746 14.5257C11.3224 13.79 11.5456 12.9743 11.5456 12.0839H11.09ZM10.4866 14.2869C10.0859 14.9308 9.5041 15.4507 8.73161 15.8443L8.9384 16.2502C9.77555 15.8237 10.4237 15.2503 10.8734 14.5276L10.4866 14.2869ZM8.73004 15.8451C7.98025 16.2344 7.06155 16.4344 5.96501 16.4344V16.89C7.11587 16.89 8.1105 16.6801 8.93997 16.2494L8.73004 15.8451ZM18.8028 16.3889H18.575V16.6167H18.8028V16.3889ZM18.8028 0.444441V0.216663H18.575V0.444441H18.8028ZM27.2078 1.08222L27.0998 1.28279L27.1028 1.28437L27.2078 1.08222ZM28.9617 2.79055L28.7596 2.89577L28.7596 2.89577L28.9617 2.79055ZM28.9617 7.80166L28.7596 7.69645L28.7596 7.69645L28.9617 7.80166ZM27.2078 9.53277L27.3128 9.73495L27.3158 9.73333L27.2078 9.53277ZM21.2172 10.1478V9.92H20.9894V10.1478H21.2172ZM21.2172 16.3889V16.6167H21.445V16.3889H21.2172ZM21.2172 7.98389H20.9894V8.21166H21.2172V7.98389ZM26.3422 7.255L26.1811 7.09391L26.1786 7.09651L26.3422 7.255ZM26.3422 3.36L26.1761 3.51603L26.1812 3.52106L26.3422 3.36ZM21.2172 2.60833V2.38055H20.9894V2.60833H21.2172ZM19.0306 16.3889V0.444441H18.575V16.3889H19.0306ZM18.8028 0.672218H24.2011V0.216663H18.8028V0.672218ZM24.2011 0.672218C25.391 0.672218 26.353 0.880666 27.0998 1.28277L27.3158 0.881667C26.4833 0.433401 25.4408 0.216663 24.2011 0.216663V0.672218ZM27.1028 1.28437C27.8545 1.67467 28.4034 2.21187 28.7596 2.89577L29.1637 2.68533C28.7606 1.91146 28.1403 1.30976 27.3127 0.880067L27.1028 1.28437ZM28.7596 2.89577C29.12 3.58772 29.3033 4.38589 29.3033 5.29611H29.7589C29.7589 4.32336 29.5626 3.45116 29.1637 2.68533L28.7596 2.89577ZM29.3033 5.29611C29.3033 6.20633 29.12 7.0045 28.7596 7.69645L29.1637 7.90688C29.5626 7.14105 29.7589 6.26885 29.7589 5.29611H29.3033ZM28.7596 7.69645C28.403 8.38115 27.8531 8.92661 27.0998 9.33222L27.3158 9.73333C28.1417 9.28857 28.761 8.67995 29.1637 7.90688L28.7596 7.69645ZM27.1028 9.33062C26.3553 9.71878 25.3921 9.92 24.2011 9.92V10.3756C25.4398 10.3756 26.481 10.1668 27.3127 9.73493L27.1028 9.33062ZM24.2011 9.92H21.2172V10.3756H24.2011V9.92ZM20.9894 10.1478V16.3889H21.445V10.1478H20.9894ZM21.2172 16.1611H18.8028V16.6167H21.2172V16.1611ZM21.2172 8.21166H24.0872V7.75611H21.2172V8.21166ZM24.0872 8.21166C25.1495 8.21166 25.9741 7.96235 26.5058 7.41348L26.1786 7.09651C25.7689 7.51949 25.0901 7.75611 24.0872 7.75611V8.21166ZM26.5033 7.41606C27.04 6.87931 27.2989 6.164 27.2989 5.29611H26.8433C26.8433 6.06821 26.6163 6.65883 26.1812 7.09393L26.5033 7.41606ZM27.2989 5.29611C27.2989 4.44203 27.0392 3.73486 26.5033 3.19893L26.1812 3.52106C26.6171 3.95698 26.8433 4.54055 26.8433 5.29611H27.2989ZM26.5082 3.20404C25.9768 2.63834 25.1512 2.38055 24.0872 2.38055V2.83611C25.0884 2.83611 25.7661 3.07943 26.1762 3.51595L26.5082 3.20404ZM24.0872 2.38055H21.2172V2.83611H24.0872V2.38055ZM20.9894 2.60833V7.98389H21.445V2.60833H20.9894ZM38.8839 15.66L39.0157 15.4742L39.0157 15.4742L38.8839 15.66ZM36.72 12.8128L36.509 12.8987L36.72 12.8128ZM36.72 4.02055L36.509 3.93461L36.509 3.93461L36.72 4.02055ZM38.8839 1.17333L38.7521 0.987575L38.7521 0.987575L38.8839 1.17333ZM45.5805 1.17333L45.4473 1.35807L45.4487 1.35908L45.5805 1.17333ZM47.7444 4.02055L47.9554 3.93461L47.9554 3.93461L47.7444 4.02055ZM47.7444 12.8128L47.9554 12.8987L47.9554 12.8987L47.7444 12.8128ZM45.5805 15.66L45.4487 15.4742L45.4473 15.4753L45.5805 15.66ZM44.9883 12.8583L45.1761 12.9873L45.177 12.986L44.9883 12.8583ZM44.9883 3.99777L44.7997 4.1254L44.8005 4.1267L44.9883 3.99777ZM39.4533 3.99777L39.2647 3.87015L39.2642 3.87078L39.4533 3.99777ZM39.4533 12.8583L39.2633 12.9841L39.2655 12.9873L39.4533 12.8583ZM42.2322 16.4344C40.9829 16.4344 39.9142 16.1119 39.0157 15.4742L38.7521 15.8458C39.7365 16.5444 40.9001 16.89 42.2322 16.89V16.4344ZM39.0157 15.4742C38.1146 14.8348 37.4182 13.9229 36.9309 12.7268L36.509 12.8987C37.024 14.1627 37.7702 15.1489 38.7521 15.8458L39.0157 15.4742ZM36.9309 12.7268C36.4436 11.5306 36.1961 10.0959 36.1961 8.41666H35.7405C35.7405 10.139 35.9942 11.6349 36.509 12.8987L36.9309 12.7268ZM36.1961 8.41666C36.1961 6.73748 36.4436 5.30272 36.9309 4.10649L36.509 3.93461C35.9942 5.19838 35.7405 6.69437 35.7405 8.41666H36.1961ZM36.9309 4.10649C37.4182 2.91043 38.1146 1.99856 39.0157 1.35908L38.7521 0.987575C37.7702 1.68439 37.024 2.67067 36.509 3.93461L36.9309 4.10649ZM39.0157 1.35908C39.9142 0.72146 40.9829 0.398886 42.2322 0.398886V-0.0566696C40.9001 -0.0566696 39.7365 0.288904 38.7521 0.987575L39.0157 1.35908ZM42.2322 0.398886C43.4974 0.398886 44.5652 0.7218 45.4473 1.35806L45.7138 0.988595C44.7433 0.288564 43.5788 -0.0566696 42.2322 -0.0566696V0.398886ZM45.4487 1.35908C46.3498 1.99856 47.0462 2.91043 47.5335 4.10649L47.9554 3.93461C47.4404 2.67067 46.6942 1.68439 45.7124 0.987575L45.4487 1.35908ZM47.5335 4.10649C48.0208 5.30272 48.2683 6.73748 48.2683 8.41666H48.7239C48.7239 6.69437 48.4702 5.19838 47.9554 3.93461L47.5335 4.10649ZM48.2683 8.41666C48.2683 10.0959 48.0208 11.5306 47.5335 12.7268L47.9554 12.8987C48.4702 11.6349 48.7239 10.139 48.7239 8.41666H48.2683ZM47.5335 12.7268C47.0462 13.9229 46.3498 14.8348 45.4487 15.4742L45.7124 15.8458C46.6942 15.1489 47.4404 14.1627 47.9554 12.8987L47.5335 12.7268ZM45.4473 15.4753C44.5652 16.1115 43.4974 16.4344 42.2322 16.4344V16.89C43.5788 16.89 44.7433 16.5448 45.7138 15.8447L45.4473 15.4753ZM42.2322 14.6122C43.4533 14.6122 44.4393 14.0604 45.1761 12.9873L44.8005 12.7294C44.1403 13.691 43.2889 14.1567 42.2322 14.1567V14.6122ZM45.177 12.986C45.9114 11.9003 46.2639 10.3676 46.2639 8.41666H45.8083C45.8083 10.3228 45.4622 11.7512 44.7997 12.7307L45.177 12.986ZM46.2639 8.41666C46.2639 6.4661 45.9116 4.94007 45.1761 3.86885L44.8005 4.1267C45.4621 5.0903 45.8083 6.51019 45.8083 8.41666H46.2639ZM45.177 3.87015C44.4408 2.78191 43.4548 2.22111 42.2322 2.22111V2.67666C43.2874 2.67666 44.1388 3.14845 44.7997 4.1254L45.177 3.87015ZM42.2322 2.22111C40.9956 2.22111 40.0015 2.78087 39.2647 3.87015L39.642 4.1254C40.3022 3.14949 41.1607 2.67666 42.2322 2.67666V2.22111ZM39.2642 3.87078C38.545 4.9416 38.2005 6.46681 38.2005 8.41666H38.6561C38.6561 6.50948 38.995 5.08876 39.6424 4.12477L39.2642 3.87078ZM38.2005 8.41666C38.2005 10.3669 38.5452 11.8987 39.2634 12.984L39.6433 12.7326C38.9948 11.7527 38.6561 10.3235 38.6561 8.41666H38.2005ZM39.2655 12.9873C40.0031 14.0615 40.9971 14.6122 42.2322 14.6122V14.1567C41.1591 14.1567 40.3006 13.69 39.6411 12.7294L39.2655 12.9873ZM59.2383 16.3889H59.0105V16.6167H59.2383V16.3889ZM59.2383 2.60833H59.4661V2.38055H59.2383V2.60833ZM54.9561 2.60833H54.7283V2.83611H54.9561V2.60833ZM54.9561 0.444441V0.216663H54.7283V0.444441H54.9561ZM65.935 0.444441H66.1628V0.216663H65.935V0.444441ZM65.935 2.60833V2.83611H66.1628V2.60833H65.935ZM61.6528 2.60833V2.38055H61.425V2.60833H61.6528ZM61.6528 16.3889V16.6167H61.8805V16.3889H61.6528ZM59.4661 16.3889V2.60833H59.0105V16.3889H59.4661ZM59.2383 2.38055H54.9561V2.83611H59.2383V2.38055ZM55.1839 2.60833V0.444441H54.7283V2.60833H55.1839ZM54.9561 0.672218H65.935V0.216663H54.9561V0.672218ZM65.7072 0.444441V2.60833H66.1628V0.444441H65.7072ZM65.935 2.38055H61.6528V2.83611H65.935V2.38055ZM61.425 2.60833V16.3889H61.8805V2.60833H61.425ZM61.6528 16.1611H59.2383V16.6167H61.6528V16.1611ZM75.8572 16.0472L75.7568 16.2517L75.7583 16.2524L75.8572 16.0472ZM73.8755 14.2933L73.6819 14.4134L73.6837 14.4161L73.8755 14.2933ZM73.1466 11.5828V11.355H72.9155L72.9189 11.5861L73.1466 11.5828ZM75.6977 11.5828L75.9255 11.5785L75.9213 11.355H75.6977V11.5828ZM76.5177 13.6556L76.3501 13.8099L76.3545 13.8144L76.5177 13.6556ZM80.8911 13.8833L81.0353 14.0596L81.0384 14.057L80.8911 13.8833ZM81.1872 10.8539L81.0057 10.9918L81.0122 10.9997L81.1872 10.8539ZM79.8205 9.85166L79.7206 10.0564L79.7248 10.0583L79.8205 9.85166ZM77.4061 8.91777L77.4761 8.70103L77.4759 8.70095L77.4061 8.91777ZM74.4905 7.16389L74.3144 7.30832L74.3158 7.31006L74.4905 7.16389ZM82.4172 1.37833L82.2692 1.55148L82.2708 1.55285L82.4172 1.37833ZM83.875 4.68111V4.90889H84.1077L84.1027 4.67621L83.875 4.68111ZM81.3011 4.68111H81.0733V4.90889H81.3011V4.68111ZM80.9822 3.58777L80.7854 3.70256L80.7876 3.70621L80.9822 3.58777ZM80.0711 2.69944L79.9517 2.89351L79.9573 2.89674L80.0711 2.69944ZM78.6133 2.335L78.6085 2.56277H78.6133V2.335ZM76.8139 2.85889L76.9468 3.04388L76.9505 3.04111L76.8139 2.85889ZM76.9733 6.04777L76.8404 6.23283L76.8436 6.23505L76.9733 6.04777ZM79.8661 7.32333L79.7948 7.53966L79.7952 7.53981L79.8661 7.32333ZM82.0755 8.32555L81.9556 8.5193L81.961 8.52247L82.0755 8.32555ZM83.6016 9.80611L83.4062 9.92335L83.4099 9.92903L83.6016 9.80611ZM83.5333 14.4072L83.7267 14.5276L83.7279 14.5257L83.5333 14.4072ZM81.6883 16.0472L81.5849 15.8443L81.5833 15.8451L81.6883 16.0472ZM78.8183 16.4344C77.7224 16.4344 76.7703 16.2346 75.9561 15.842L75.7583 16.2524C76.6448 16.6798 77.6668 16.89 78.8183 16.89V16.4344ZM75.9576 15.8428C75.1585 15.4505 74.5301 14.8936 74.0674 14.1705L73.6837 14.4161C74.1928 15.2116 74.8855 15.824 75.7568 16.2517L75.9576 15.8428ZM74.0691 14.1733C73.6236 13.4548 73.3891 12.5932 73.3744 11.5795L72.9189 11.5861C72.9346 12.6679 73.1859 13.6133 73.6819 14.4134L74.0691 14.1733ZM73.1466 11.8106H75.6977V11.355H73.1466V11.8106ZM75.47 11.5871C75.4862 12.446 75.7799 13.1907 76.3502 13.8099L76.6853 13.5012C76.1926 12.9663 75.9396 12.3292 75.9255 11.5785L75.47 11.5871ZM76.3545 13.8144C76.9539 14.4304 77.7779 14.7261 78.7955 14.7261V14.2706C77.8695 14.2706 77.175 14.0044 76.681 13.4967L76.3545 13.8144ZM78.7955 14.7261C79.724 14.7261 80.4803 14.5137 81.0353 14.0596L80.7468 13.707C80.2996 14.073 79.6589 14.2706 78.7955 14.2706V14.7261ZM81.0384 14.057C81.5915 13.5877 81.8705 12.9771 81.8705 12.2433H81.415C81.415 12.8459 81.1928 13.3286 80.7437 13.7096L81.0384 14.057ZM81.8705 12.2433C81.8705 11.6385 81.706 11.1207 81.3622 10.7081L81.0122 10.9997C81.2757 11.316 81.415 11.7245 81.415 12.2433H81.8705ZM81.3685 10.7161C81.0498 10.2967 80.5588 9.94273 79.9163 9.645L79.7248 10.0583C80.3275 10.3376 80.7475 10.6518 81.0058 10.9917L81.3685 10.7161ZM79.9204 9.64694C79.2847 9.33684 78.4689 9.02177 77.4761 8.70103L77.3361 9.13452C78.3174 9.45156 79.1112 9.75908 79.7207 10.0564L79.9204 9.64694ZM77.4759 8.70095C76.1789 8.28355 75.2508 7.71751 74.6652 7.01772L74.3158 7.31006C74.9755 8.09841 75.991 8.70163 77.3363 9.1346L77.4759 8.70095ZM74.6667 7.01946C74.0813 6.30558 73.7844 5.43202 73.7844 4.385H73.3289C73.3289 5.52464 73.6546 6.50367 74.3144 7.30831L74.6667 7.01946ZM73.7844 4.385C73.7844 3.18733 74.2137 2.23489 75.0708 1.50633L74.7758 1.15922C73.8107 1.97954 73.3289 3.06193 73.3289 4.385H73.7844ZM75.0708 1.50633C75.9287 0.777094 77.1231 0.398886 78.6816 0.398886V-0.0566696C77.0513 -0.0566696 75.7401 0.339566 74.7758 1.15922L75.0708 1.50633ZM78.6816 0.398886C80.1903 0.398886 81.3785 0.790074 82.2692 1.55147L82.5652 1.20519C81.5729 0.356957 80.2708 -0.0566696 78.6816 -0.0566696V0.398886ZM82.2708 1.55285C83.1542 2.29378 83.618 3.32853 83.6472 4.68601L84.1027 4.67621C84.0711 3.20924 83.5631 2.04214 82.5636 1.20381L82.2708 1.55285ZM83.875 4.45333H81.3011V4.90889H83.875V4.45333ZM81.5289 4.68111C81.5289 4.25648 81.4093 3.85143 81.1768 3.46934L80.7876 3.70621C80.9802 4.02263 81.0733 4.34647 81.0733 4.68111H81.5289ZM81.1789 3.473C80.9448 3.07157 80.6112 2.7481 80.1849 2.50214L79.9573 2.89674C80.3206 3.10634 80.5944 3.37509 80.7854 3.70254L81.1789 3.473ZM80.1905 2.50545C79.7519 2.23557 79.2222 2.10722 78.6133 2.10722V2.56277C79.1585 2.56277 79.6006 2.67738 79.9517 2.89343L80.1905 2.50545ZM78.6181 2.10727C77.8628 2.0912 77.2107 2.27651 76.6772 2.67666L76.9505 3.04111C77.3888 2.71237 77.9364 2.54842 78.6085 2.56272L78.6181 2.10727ZM76.6809 2.67393C76.1344 3.06674 75.8572 3.61446 75.8572 4.29389H76.3127C76.3127 3.75849 76.5215 3.34955 76.9468 3.04384L76.6809 2.67393ZM75.8572 4.29389C75.8572 5.10953 76.1872 5.76379 76.8405 6.2328L77.1061 5.86274C76.575 5.48138 76.3127 4.96639 76.3127 4.29389H75.8572ZM76.8436 6.23505C77.4637 6.66432 78.4535 7.09766 79.7948 7.53966L79.9374 7.107C78.606 6.66826 77.6674 6.25123 77.103 5.8605L76.8436 6.23505ZM79.7952 7.53981C80.6161 7.80845 81.3356 8.13539 81.9556 8.51922L82.1954 8.13188C81.5399 7.72608 80.7865 7.38488 79.9369 7.10685L79.7952 7.53981ZM81.961 8.52247C82.583 8.88409 83.063 9.35105 83.4063 9.9233L83.797 9.68892C83.4114 9.04635 82.8739 8.52627 82.19 8.12864L81.961 8.52247ZM83.4099 9.92903C83.7596 10.4746 83.9433 11.1876 83.9433 12.0839H84.3989C84.3989 11.1275 84.2029 10.322 83.7934 9.68318L83.4099 9.92903ZM83.9433 12.0839C83.9433 12.8942 83.7413 13.6274 83.3387 14.2888L83.7279 14.5257C84.1757 13.79 84.3989 12.9743 84.3989 12.0839H83.9433ZM83.3399 14.2869C82.9392 14.9308 82.3574 15.4507 81.5849 15.8443L81.7917 16.2502C82.6288 15.8237 83.277 15.2503 83.7267 14.5276L83.3399 14.2869ZM81.5833 15.8451C80.8335 16.2344 79.9148 16.4344 78.8183 16.4344V16.89C79.9692 16.89 80.9638 16.6801 81.7933 16.2494L81.5833 15.8451Z" fill="#212121" mask="url(#path-1-outside-1_10695_185)"/>
</svg>
